Coordinates
version=1
nRows=10
nColumns=46
inDegrees=yes

Units are S.I. units (second, meters, Newtons, ...)
Angles are in degrees.

endheader
time	pelvis_tilt	pelvis_list	pelvis_rotation	pelvis_tx	pelvis_ty	pelvis_tz	bb_angle	bb_tx	bb_ty	bb_tz	hip_flexion_r	hip_adduction_r	hip_rotation_r	knee_angle_r	knee_angle_r_beta	ankle_angle_r	subtalar_angle_r	mtp_angle_r	crank_angle_r	hip_flexion_l	hip_adduction_l	hip_rotation_l	knee_angle_l	knee_angle_l_beta	ankle_angle_l	subtalar_angle_l	mtp_angle_l	crank_angle_l	lumbar_extension	lumbar_bending	lumbar_rotation	arm_flex_r	arm_add_r	arm_rot_r	elbow_flex_r	pro_sup_r	wrist_flex_r	wrist_dev_r	arm_flex_l	arm_add_l	arm_rot_l	elbow_flex_l	pro_sup_l	wrist_flex_l	wrist_dev_l
      0.00500000	    -26.24017293	      0.30267541	      4.87392623	      0.09597796	      1.06578152	     -0.25352911	      0.00000000	      0.50000000	      0.00000000	      0.25000000	     51.69114929	     -7.69865465	     -7.79892999	     45.70282264	      0.79766473	     -5.00268368	      0.00000000	      0.00000000	      0.00000000	     98.68997637	     -8.05208585	     -3.70925372	     97.58903157	      1.70324991	    -10.61588358	      0.35665562	      0.00000000	      0.00000000	    -44.08436971	     -0.32797174	     -0.58309824	     89.84782736	     -8.64881819	     34.20389460	     29.57892402	     23.36260644	      0.00000000	      0.00000000	     89.84495812	      5.70773047	     85.01540507	     76.83906547	     44.77488929	      0.00000000	      0.00000000
      0.01000000	    -26.27987592	      0.30910166	      4.85836178	      0.09594437	      1.06570358	     -0.25350923	      0.00000000	      0.50000000	      0.00000000	      0.25000000	     51.74590959	     -7.69124174	     -7.77079922	     45.71623066	      0.79789875	     -5.00158124	      0.00000000	      0.00000000	      0.00000000	     98.67078315	     -8.44536477	     -3.97673452	     97.56127089	      1.70276540	    -10.83227104	      0.37795598	      0.00000000	      0.00000000	    -44.04830009	     -0.33770179	     -0.56170038	     89.84675140	     -8.55488263	     33.63622884	     29.36447960	     24.81374353	      0.00000000	      0.00000000	     89.84478857	      5.70983805	     85.26707962	     76.56516898	     44.84032706	      0.00000000	      0.00000000
      0.01500000	    -26.28041481	      0.29103873	      4.84002307	      0.09594787	      1.06571335	     -0.25345884	      0.00000000	      0.50000000	      0.00000000	      0.25000000	     51.74205571	     -7.65202303	     -7.75363655	     45.69385103	      0.79750815	     -5.00068002	      0.00000000	      0.00000000	      0.00000000	     98.63446747	     -9.50171963	     -4.60451756	     97.62853267	      1.70393934	    -10.55099538	      0.32940760	      0.00000000	      0.00000000	    -44.06698551	     -0.29157669	     -0.60518628	     89.84566988	     -8.17362800	     32.58118464	     29.35837155	     24.44142298	      0.00000000	      0.00000000	     89.84467846	      5.51070713	     85.41806761	     76.25016219	     44.90674987	      0.00000000	      0.00000000
      0.02000000	    -26.33827839	      0.22385458	      5.03253547	      0.09574317	      1.06577770	     -0.25311996	      0.00000000	      0.50000000	      0.00000000	      0.25000000	     51.76735189	     -7.67774401	     -7.84960273	     45.69520588	      0.79753179	     -5.00031949	      0.00000000	      0.00000000	      0.00000000	     98.70755401	     -9.42219497	     -4.57466028	     97.54266658	      1.70244069	    -10.65700879	      0.32038207	      0.00000000	      0.00000000	    -44.02566547	     -0.15301378	     -0.72919372	     89.84556609	     -8.17989844	     32.87080149	     30.00335552	     21.32344976	      0.00000000	      0.00000000	     89.84590304	      5.53274409	     85.45576873	     75.99098797	     44.94333709	      0.00000000	      0.00000000
      0.02500000	    -26.22167900	      0.32925897	      5.07933533	      0.09587966	      1.06605121	     -0.25331777	      0.00000000	      0.50000000	      0.00000000	      0.25000000	     51.62636908	     -7.82449879	     -7.88052860	     45.68267920	      0.79731316	     -5.00019778	      0.00000000	      0.00000000	      0.00000000	     98.26131879	    -10.48252045	     -5.50534448	     97.37936159	      1.69959048	    -11.42418537	      0.36863298	      0.00000000	      0.00000000	    -44.16931387	     -0.21796145	     -0.83465167	     89.84394014	     -8.60592720	     33.85601090	     29.58937684	     24.60535501	      0.00000000	      0.00000000	     89.84585168	      5.55949826	     85.21394658	     75.81527783	     44.95912535	      0.00000000	      0.00000000
      0.03000000	    -26.04967967	      0.54744247	      5.10749533	      0.09627924	      1.06665775	     -0.25364685	      0.00000000	      0.50000000	      0.00000000	      0.25000000	     51.41197969	     -8.08162391	     -7.87833988	     45.66192678	      0.79695097	     -5.00018462	      0.00000000	      0.00000000	      0.00000000	     97.87457201	    -10.39998542	     -5.75726578	     97.28830692	      1.69800128	    -11.45965027	      0.35827445	      0.00000000	      0.00000000	    -44.38024235	     -0.29449228	     -1.07811682	     89.84855638	     -8.13805075	     33.30661451	     29.44716383	     23.89293794	      0.00000000	      0.00000000	     89.84553064	      5.29186712	     84.94822681	     75.79558767	     44.96094714	      0.00000000	      0.00000000
      0.03500000	    -25.85222849	      0.80772992	      5.14752698	      0.09664581	      1.06728624	     -0.25408447	      0.00000000	      0.50000000	      0.00000000	      0.25000000	     51.18133904	     -8.39173917	     -7.87592175	     45.65034897	      0.79674889	     -5.00015182	      0.00000000	      0.00000000	      0.00000000	     97.51274010	    -10.23756904	     -6.00444300	     97.24781281	      1.69729452	    -11.29411727	      0.32562285	      0.00000000	      0.00000000	    -44.68057243	     -0.43765522	     -1.19016986	     89.84426604	     -8.33024966	     33.00219866	     29.89308870	     23.42045777	      0.00000000	      0.00000000	     89.84535444	      5.42860325	     85.36569627	     75.75165418	     44.96561139	      0.00000000	      0.00000000
      0.04000000	    -25.59620464	      1.16139657	      5.20878574	      0.09727014	      1.06812759	     -0.25463119	      0.00000000	      0.50000000	      0.00000000	      0.25000000	     50.86041801	     -8.81482248	     -7.87848195	     45.61364443	      0.79610828	     -5.00012277	      0.00000000	      0.00000000	      0.00000000	     97.04025433	     -9.91688581	     -6.26572108	     97.20232708	      1.69650065	    -11.00864735	      0.28360848	      0.00000000	      0.00000000	    -45.00290601	     -0.65541366	     -1.45561467	     89.84791316	     -8.28173301	     33.00855681	     29.71115511	     23.57673630	      0.00000000	      0.00000000	     89.84519499	      5.44238245	     85.21729010	     75.70690118	     44.97012890	      0.00000000	      0.00000000
      0.04500000	    -25.21279713	      1.56030023	      5.24627062	      0.09800163	      1.06919416	     -0.25526480	      0.00000000	      0.50000000	      0.00000000	      0.25000000	     50.40818576	     -9.28549111	     -7.92031356	     45.58777990	      0.79565686	     -5.00009492	      0.00000000	      0.00000000	      0.00000000	     96.42460053	     -9.53903562	     -6.52478255	     97.17353799	      1.69599818	    -10.67165033	      0.23671637	      0.00000000	      0.00000000	    -45.52138917	     -0.86143766	     -1.70242099	     89.84437216	     -8.41860416	     32.80263540	     30.09711951	     23.30366892	      0.00000000	      0.00000000	     89.84586411	      5.49127544	     85.38154634	     75.65728436	     44.97478617	      0.00000000	      0.00000000
      0.05000000	    -24.83490606	      1.96392210	      5.31641328	      0.09881741	      1.07032192	     -0.25598510	      0.00000000	      0.50000000	      0.00000000	      0.25000000	     49.93322714	     -9.80073434	     -8.00312116	     45.51534746	      0.79439267	     -5.00008025	      0.00000000	      0.00000000	      0.00000000	     95.76447413	     -9.09250914	     -6.79137068	     97.09473698	      1.69462285	    -10.45980486	      0.20055570	      0.00000000	      0.00000000	    -45.98659960	     -1.12666874	     -1.81974056	     89.84630073	     -8.37652779	     31.67786411	     29.63747210	     24.76770542	      0.00000000	      0.00000000	     89.84716925	      6.36026239	     81.57805545	     75.62119977	     44.97760078	      0.00000000	      0.00000000
